HIERARCHY
ROOT Hips
{
	OFFSET 0.00000 0.00000 0.00000
	CHANNELS 6 Xposition Yposition Zposition Yrotation Zrotation Xrotation 
	JOINT Lumbar
	{
		OFFSET 0 0 0
		CHANNELS 3 Zrotation Xrotation Yrotation
		JOINT Neck
		{
			OFFSET 0.00 0.2701 0.00
			CHANNELS 3 Zrotation Xrotation Yrotation
			End Site
			{
				OFFSET 0.00 0.1379 0.00
			}
		}
		JOINT RightShoulder
		{
			OFFSET 0.0119 0.2289 0.1181
			CHANNELS 3 Zrotation Xrotation Yrotation
			JOINT RightElbow
			{
				OFFSET 0.00 -0.1475 0.00
				CHANNELS 2 Zrotation Yrotation
				JOINT RightWrist
				{
					OFFSET 0.00 -0.1605 0.00
					CHANNELS 2 Zrotation Xrotation
					End Site
					{
						OFFSET 0.0040 -0.1068 0.0006
					}
				}
			}
		}
		JOINT LeftShoulder
		{
			OFFSET 0.0119 0.2289 -0.1181
			CHANNELS 3 Zrotation Xrotation Yrotation
			JOINT LeftElbow
			{
				OFFSET 0.00 -0.1475 0.00
				CHANNELS 2 Zrotation Yrotation
				JOINT LeftWrist
				{
					OFFSET 0.00 -0.1605 0.00
					CHANNELS 2 Zrotation Xrotation
					End Site
					{
						OFFSET 0.0040 -0.1068 -0.0006
					}
				}
			}
		}
	}
	JOINT RightHip
	{
		OFFSET 0.0316 -0.0424 0.0458
		CHANNELS 3 Zrotation Xrotation Yrotation
		JOINT RightKnee
		{
			OFFSET 0.00 -0.2438 0.00
			CHANNELS 1 Zrotation
			JOINT RightAnkle
			{
				OFFSET 0.00 -0.2449 0.00
				CHANNELS 3 Zrotation Xrotation Yrotation
				End Site
				{
					OFFSET 0.1237 -0.0542 0.0051
				}
			}
		}
	}
	JOINT LeftHip
	{
		OFFSET 0.0316 -0.0424 -0.0458
		CHANNELS 3 Zrotation Xrotation Yrotation
		JOINT LeftKnee
		{
			OFFSET 0.00 -0.2438 0.00
			CHANNELS 1 Zrotation
			JOINT LeftAnkle
			{
				OFFSET 0.00 -0.2449 0.00
				CHANNELS 3 Zrotation Xrotation Yrotation
				End Site
				{
					OFFSET 0.1237 -0.0542 -0.0051
				}
			}
		}
	}
}
MOTION
Frames: 13
Frame Time: 0.02
-1.34428 -0.24004 -0.28725 1319.00566 -41.33872 3.97749 42.26654 7.07821 5.87292 -1.97191 -2.64087 -0.83079 -10.38751 -16.0345 -32.28012 19.70581 62.04222 -9.37404 4.54529 -44.04488 9.83335 -5.67526 76.3917 -118.05178 9.72274 -4.01532 28.16932 13.88865 -40.40672 -4.37179 5.3522 35.17043 16.87491 42.06655 21.60996 -3.35557 -58.5505 -8.80932 2.75524 2.16173
-1.34886 -0.24091 -0.28196 1319.6445 -41.11563 4.44154 41.98853 6.9843 6.45187 -2.24935 -2.83776 -0.83079 -10.25371 -17.19857 -28.38694 20.29023 64.68582 -8.51642 3.94029 -43.76907 10.60134 -6.53926 76.5742 -112.35353 8.26122 -3.20971 26.81806 13.94766 -40.78381 -3.51627 5.67613 36.26444 17.41869 44.26222 20.33112 -3.31307 -57.56129 -8.63999 3.13048 2.361
-1.35325 -0.24199 -0.27653 1320.27522 -40.92873 4.87544 41.77555 6.90075 7.0141 -2.58392 -3.05324 -0.83079 -10.35269 -18.57271 -22.92538 20.8565 69.20604 -6.98488 2.96557 -43.40387 11.62532 -7.6489 76.78337 -105.13553 6.61042 -2.23412 25.804 13.91365 -40.55986 -3.24817 5.3965 35.60264 17.09156 46.13245 18.83018 -3.34214 -55.40157 -8.56166 3.49805 2.56231
-1.35773 -0.243 -0.27113 1320.91354 -40.728 5.31508 41.53958 6.81417 7.56819 -2.89454 -3.25877 -0.83079 -10.33981 -19.78959 -18.42921 21.42962 72.61616 -5.84265 2.22374 -43.10145 12.48326 -8.58987 76.98216 -98.93001 5.11283 -1.39516 24.64474 13.92301 -40.62423 -2.73205 5.43833 35.76847 17.1786 48.13998 17.45993 -3.31234 -53.74296 -8.45214 3.84401 2.74985
-1.36219 -0.2439 -0.26589 1321.53964 -40.5154 5.79321 41.27589 6.71834 8.1859 -3.20229 -3.47297 -0.83079 -10.34788 -21.25385 -12.94445 22.02237 77.078 -4.36604 1.23373 -42.70949 13.55241 -9.77412 77.17595 -91.34401 3.31903 -0.30299 23.45333 13.92526 -40.63657 -2.13436 5.30523 35.86621 17.21704 50.17757 15.95608 -3.33476 -52.15129 -8.31833 4.23608 2.96137
-1.36664 -0.24508 -0.26028 1322.1866 -40.33781 6.1822 41.08629 6.64468 8.66857 -3.52586 -3.67313 -0.83079 -10.37188 -22.26203 -9.09232 22.56589 79.84048 -3.40982 0.65542 -42.47979 14.24467 -10.51256 77.3846 -86.2585 2.09701 0.30673 22.40903 13.92103 -40.6094 -1.84621 5.38154 35.66777 17.13875 52.08196 14.68274 -3.28547 -50.17488 -8.2492 4.55215 3.13443
-1.37113 -0.24695 -0.25379 1322.90531 -40.231 6.33169 41.07404 6.63439 8.77872 -3.89823 -3.8238 -0.83079 -10.35281 -21.90707 -10.43565 22.96248 77.0443 -4.17849 1.40002 -42.73803 13.80054 -9.91724 77.64059 -88.72364 2.56262 -0.5253 21.67839 13.92358 -40.62624 -2.27463 6.21091 35.06823 16.95057 53.68173 14.07655 -3.05364 -47.31858 -8.3419 4.67433 3.20856
-1.37562 -0.24911 -0.24694 1323.6423 -40.16112 6.39198 41.136 6.64547 8.75513 -4.28032 -3.96039 -0.83079 -10.34795 -21.09607 -13.41619 23.31091 72.54411 -5.4718 2.5529 -43.15875 12.97468 -8.87261 77.90857 -93.7108 3.60084 -1.83667 21.08502 13.92282 -40.62122 -2.99292 7.26282 34.22537 16.67101 55.16145 13.71509 -2.75044 -44.14253 -8.49359 4.72648 3.24698
-1.38009 -0.25115 -0.24021 1324.36286 -40.08557 6.49291 41.17136 6.64414 8.79483 -4.64504 -4.10711 -0.83079 -10.35615 -20.53043 -15.43607 23.68932 69.09642 -6.44183 3.45188 -43.49323 12.34352 -8.05973 78.16185 -97.37349 4.33899 -2.88613 20.4358 13.92269 -40.62067 -3.576 8.19307 33.49396 16.42953 56.71167 13.25815 -2.4664 -41.18864 -8.61127 4.81003 3.30097
-1.38461 -0.25313 -0.23364 1325.11863 -39.96494 6.59242 41.17921 6.65481 8.821 -5.06697 -4.23895 -0.83079 -10.28866 -19.81436 -18.3008 24.03308 64.55917 -7.74116 4.62084 -43.87789 11.62826 -7.13597 78.45306 -101.74527 5.2397 -4.11819 19.7734 13.92299 -40.62272 -4.19689 9.19293 32.69848 16.17259 58.19213 12.72759 -2.23736 -37.8684 -8.76023 4.89349 3.35682
-1.38904 -0.25531 -0.22665 1325.80406 -39.94579 6.6741 41.2608 6.64506 8.8467 -5.3707 -4.39799 -0.83079 -10.38088 -19.29652 -19.83478 24.43791 61.83832 -8.49489 5.33674 -44.19666 10.99858 -6.33726 78.67038 -105.24633 5.93875 -5.08271 19.16339 13.9228 -40.62161 -4.79685 10.10393 32.00158 15.93758 59.78222 12.41055 -1.87913 -35.25081 -8.86008 4.96146 3.40096
-1.39321 -0.25797 -0.21866 1326.30457 -40.20319 6.72843 41.53083 6.57686 8.87823 -5.35073 -4.63696 -0.83079 -10.89514 -19.47102 -17.1326 25.02115 64.75677 -7.55433 4.63851 -44.30385 10.65796 -5.95637 78.65755 -105.85005 5.95735 -5.22196 18.69104 13.92287 -40.6222 -5.29481 10.75504 31.63741 15.7855 61.80436 12.63129 -1.15781 -34.66095 -8.77975 5.00085 3.41774
-1.39729 -0.26082 -0.21024 1326.73222 -40.5599 6.76836 41.87181 6.48663 8.91792 -5.21056 -4.90343 -0.83079 -11.57133 -19.85274 -13.07577 25.6678 69.5208 -6.05923 3.48445 -44.33802 10.42194 -5.72151 78.57389 -105.47965 5.75211 -5.0717 18.26015 13.92285 -40.62223 -5.75408 11.30424 31.38754 15.66206 63.92401 13.05744 -0.31321 -34.79453 -8.65242 5.02766 3.42458
